<?xml version="1.0" standalone="no"?>
<!DOCTYPE svg PUBLIC "-//W3C//DTD SVG 20010904//EN"
 "http://www.w3.org/TR/2001/REC-SVG-20010904/DTD/svg10.dtd">
<svg version="1.0" xmlns="http://www.w3.org/2000/svg"
 width="512.000000pt" height="512.000000pt" viewBox="0 0 512.000000 512.000000"
 preserveAspectRatio="xMidYMid meet">
<metadata>
Created by potrace 1.14, written by Peter Selinger 2001-2017
</metadata>
<g transform="translate(0.000000,512.000000) scale(0.100000,-0.100000)"
fill="#000000" stroke="none">
<path d="M982 5079 c-86 -13 -162 -43 -206 -82 -30 -27 -39 -44 -54 -107 -15
-66 -17 -133 -17 -545 l0 -470 -71 -50 c-40 -27 -140 -93 -224 -145 -198 -123
-295 -213 -347 -318 l-38 -76 0 -1505 0 -1506 24 -53 c33 -73 106 -137 184
-161 59 -18 138 -19 1872 -26 1276 -5 1903 -3 2125 5 173 6 380 13 460 15 218
7 252 16 309 80 42 48 68 101 88 182 15 58 17 105 14 308 -5 363 -6 1153 -1
1780 5 553 1 677 -31 919 -9 71 -14 84 -52 129 -63 74 -163 150 -357 271 -96
60 -192 123 -214 139 l-38 31 3 490 c4 522 3 538 -44 607 -12 19 -43 45 -67
59 l-45 25 -1445 1 c-795 1 -1517 4 -1605 7 -88 3 -188 1 -223 -4z m3187 -104
c30 -9 67 -29 82 -44 47 -47 52 -92 43 -326 -5 -115 -8 -550 -6 -965 l3 -755
-103 -80 c-341 -266 -865 -673 -1058 -823 -124 -96 -230 -179 -237 -184 -8 -7
-23 -1 -46 16 -64 49 -140 75 -252 86 l-106 10 -71 -36 c-39 -20 -88 -47 -109
-61 -43 -28 -43 -28 -121 35 -77 62 -180 143 -283 221 -89 67 -173 132 -355
276 -119 93 -352 274 -441 342 -37 28 -74 56 -81 62 -68 55 -139 111 -166 130
l-32 22 0 982 c0 550 4 999 10 1021 5 21 18 48 30 60 l21 21 1347 6 c1766 7
1862 6 1931 -16z m-3469 -1596 l0 -370 -39 28 c-45 32 -301 232 -378 294 -28
23 -57 45 -63 49 -19 12 0 37 58 79 59 43 415 289 420 290 1 1 2 -166 2 -370z
m3757 337 c15 -13 52 -38 82 -56 30 -17 73 -47 96 -66 23 -19 46 -34 50 -34 5
0 31 -17 59 -38 28 -22 67 -49 87 -61 20 -12 48 -36 62 -55 l26 -33 -38 -29
c-21 -16 -81 -63 -132 -105 -134 -108 -323 -249 -328 -244 -7 8 -6 745 1 745
3 0 19 -11 35 -24z m503 -455 c0 -13 -22 -32 -67 -58 -76 -45 -121 -69 -113
-60 6 7 174 135 178 136 1 1 2 -7 2 -18z m-4703 -57 c2 -6 -8 -16 -22 -22 -28
-13 -30 -10 -14 19 10 20 30 22 36 3z m4711 -129 c-3 -2 -567 -328 -593 -343
-43 -23 52 44 300 212 l290 197 3 -32 c2 -17 2 -32 0 -34z m-4411 -101 c4 -11
-189 -125 -197 -117 -3 3 30 39 74 79 73 69 80 74 99 61 12 -8 22 -18 24 -23z
m4388 -17 c-34 -23 -140 -81 -133 -72 12 13 132 84 143 85 5 0 1 -6 -10 -13z
m-4267 -83 c-2 -1 -32 -19 -68 -39 -36 -21 -81 -47 -100 -58 -45 -26 -29 -8
65 72 65 55 71 58 88 44 9 -9 16 -17 15 -19z m4117 -3 c-8 -7 -652 -379 -690
-399 -7 -3 -7 -1 0 6 8 8 215 129 635 370 56 32 71 39 55 23z m-4545 -4 c0 -1
-22 -25 -50 -52 -46 -46 -50 -47 -50 -25 0 19 11 31 48 52 49 28 52 30 52 25z
m4710 -31 c0 -21 -80 -70 -672 -412 -810 -467 -744 -429 -737 -420 9 10 1392
854 1402 855 4 1 7 -10 7 -23z m-4163 -44 l32 -27 -122 -70 c-282 -162 -276
-162 -87 0 69 60 127 112 128 117 6 13 15 9 49 -20z m108 -92 c-3 -5 -16 -15
-28 -21 -22 -12 -22 -12 -3 10 19 21 43 30 31 11z m4053 -32 l-3 -41 -155 -90
c-1046 -605 -1642 -947 -1647 -947 -3 0 374 235 838 523 464 288 869 540 899
560 30 20 58 37 63 37 4 0 7 -19 5 -42z m-4738 -18 c-60 -54 -70 -59 -70 -32
0 10 22 29 58 49 31 18 59 32 62 32 3 0 -20 -22 -50 -49z m786 -25 c2 -5 -47
-38 -108 -73 -62 -35 -109 -59 -105 -55 5 4 47 38 95 75 82 63 111 76 118 53z
m-616 -19 c-8 -7 -53 -46 -100 -86 -47 -41 -97 -85 -112 -99 l-28 -25 0 41 0
40 122 72 c127 73 142 81 118 57z m710 -50 c0 -2 -18 -13 -40 -25 -48 -25 -52
-21 -7 8 31 20 47 26 47 17z m3854 -45 c-5 -5 -97 -60 -204 -121 -226 -130
-217 -125 -209 -116 14 15 414 254 418 250 3 -2 0 -8 -5 -13z m-3744 -42 c0
-5 -8 -13 -17 -16 -10 -4 -82 -44 -160 -89 -237 -138 -237 -137 -15 22 125 90
160 110 174 103 10 -5 18 -14 18 -20z m2880 -3 c0 -2 -53 -35 -117 -71 -144
-82 -141 -81 -128 -68 9 10 235 143 242 143 2 0 3 -2 3 -4z m-2766 -80 l29
-24 -24 -15 c-13 -8 -127 -74 -254 -147 -126 -73 -246 -141 -265 -153 -19 -11
-30 -15 -24 -8 13 14 497 370 504 370 3 0 18 -10 34 -23z m3638 -9 c-4 -31
-20 -41 -610 -382 -907 -524 -924 -532 -247 -112 253 156 546 339 650 405 105
67 195 121 200 121 7 1 9 -13 7 -32z m-1132 -61 c0 -2 -37 -25 -82 -51 -105
-60 -105 -60 -93 -47 8 9 164 101 173 102 1 0 2 -2 2 -4z m-2367 -39 l29 -22
-303 -175 c-166 -96 -310 -179 -318 -184 -43 -24 23 25 272 205 150 109 277
197 282 198 6 0 23 -9 38 -22z m3067 -12 c0 -2 -10 -9 -22 -15 -22 -11 -22
-10 -4 4 21 17 26 19 26 11z m-4220 -9 c0 -4 -124 -97 -147 -110 -8 -4 -13 -1
-13 7 0 8 35 36 78 61 80 48 82 49 82 42z m4640 -29 c-8 -8 -80 -51 -160 -97
-169 -97 -167 -95 -159 -86 4 4 76 49 160 101 144 88 194 114 159 82z m-1310
-21 c0 -3 -57 -37 -127 -77 -71 -40 -157 -90 -193 -112 -36 -21 -56 -30 -45
-19 11 11 90 59 175 107 85 47 159 91 165 96 9 9 25 12 25 5z m-2080 -20 c0
-2 -7 -7 -16 -10 -8 -3 -12 -2 -9 4 6 10 25 14 25 6z m100 -62 c0 -3 -115 -71
-190 -111 -25 -13 -36 -17 -25 -9 120 92 215 145 215 120z m3299 -8 c-20 -19
-300 -178 -304 -174 -6 5 309 197 314 192 3 -3 -2 -10 -10 -18z m-4554 -65
c-6 -6 -64 -48 -130 -96 -91 -64 -121 -81 -123 -69 -5 23 4 30 135 106 118 68
135 76 118 59z m1369 -14 l29 -23 -39 -21 c-30 -15 -563 -321 -714 -410 -97
-56 183 142 600 425 41 28 80 51 85 51 6 1 23 -10 39 -22z m-1590 -2 c-10 -8
-23 -14 -29 -14 -5 0 -1 6 9 14 11 8 24 15 30 15 5 0 1 -7 -10 -15z m437 -13
c-13 -9 -123 -89 -245 -177 l-221 -161 -3 40 c-2 22 0 42 5 43 4 2 112 64 238
137 127 74 235 135 240 135 6 0 -1 -8 -14 -17z m4347 -56 c-4 -3 -562 -323
-743 -426 -71 -41 -146 -83 -165 -94 -110 -62 31 29 442 285 443 276 463 288
466 263 2 -14 2 -27 0 -28z m-3070 -28 c14 -14 16 -28 3 -28 -6 0 -36 -15 -68
-34 -263 -154 -562 -321 -538 -301 17 14 140 97 275 185 135 87 254 166 265
174 24 19 47 20 63 4z m-1233 -77 c-18 -17 -504 -361 -509 -361 -3 0 -6 17 -6
38 l1 37 257 147 c254 145 275 156 257 139z m1365 -26 c8 -9 9 -19 4 -24 -6
-6 -665 -387 -826 -478 -5 -2 -8 -2 -8 0 0 5 311 217 585 400 203 135 214 139
245 102z m2940 5 c0 -24 -7 -35 -31 -48 -17 -9 -209 -120 -427 -245 -441 -254
-498 -286 -463 -260 24 17 913 582 919 583 1 0 2 -14 2 -30z m-2396 1 c15 -6
8 -14 -44 -45 -35 -20 -70 -34 -78 -31 -8 3 -13 8 -10 10 12 12 103 75 108 74
3 0 13 -4 24 -8z m136 -58 c0 -7 -69 -48 -254 -152 -94 -52 -55 -22 93 73 124
80 161 98 161 79z m-561 -37 c10 -12 6 -18 -21 -32 -27 -14 -229 -130 -527
-302 -94 -55 -24 1 101 80 72 46 195 124 272 175 78 51 146 92 152 93 6 0 17
-6 23 -14z m611 -54 c-60 -38 -166 -97 -160 -89 15 17 177 117 190 117 8 0 -5
-13 -30 -28z m2220 -126 l0 -44 -492 -283 c-270 -156 -496 -286 -502 -288 -35
-12 69 59 503 343 266 174 485 316 487 316 2 0 4 -20 4 -44z m-1360 9 c0 -2
-10 -9 -22 -15 -22 -11 -22 -10 -4 4 21 17 26 19 26 11z m-2866 -88 c-105 -76
-572 -397 -588 -403 -12 -5 -16 0 -16 22 0 16 4 36 10 44 8 14 625 377 644
379 4 1 -18 -18 -50 -42z m-379 -86 c-6 -4 -59 -41 -118 -81 -78 -51 -108 -66
-105 -54 2 11 47 44 113 81 105 61 130 73 110 54z m4605 -129 l0 -48 -217
-124 c-120 -68 -291 -166 -381 -218 -90 -51 -167 -92 -171 -90 -6 2 752 524
767 527 1 1 2 -21 2 -47z m-4300 -6 c-27 -25 -523 -356 -528 -352 -2 3 -1 17
3 33 5 24 41 48 268 180 144 83 264 152 267 152 2 1 -2 -5 -10 -13z m218 -31
c-33 -33 -748 -509 -754 -502 -4 3 -2 22 2 42 9 35 20 43 379 250 346 200 387
223 373 210z m4082 -140 c0 -14 -4 -25 -9 -25 -4 0 -95 -50 -202 -111 -231
-133 -216 -124 -207 -114 12 13 402 274 411 274 4 1 7 -10 7 -24z m0 -164 c0
-37 -2 -39 -62 -71 -52 -27 -251 -140 -428 -243 -19 -11 -30 -15 -25 -10 11
12 507 363 512 363 2 0 3 -17 3 -39z m-4301 -5 c-6 -6 -447 -298 -497 -330
l-43 -27 3 27 c3 23 34 45 268 180 239 139 283 163 269 150z m4291 -171 c0
-18 -10 -30 -42 -48 -24 -13 -91 -51 -150 -85 -60 -33 -108 -59 -108 -57 0 4
291 215 297 215 1 0 3 -11 3 -25z m-4105 7 c-6 -5 -162 -107 -349 -226 -257
-166 -341 -215 -347 -204 -5 7 -7 18 -6 23 3 9 694 414 707 415 2 0 0 -4 -5
-8z m3115 -17 c0 -2 -10 -9 -22 -15 -22 -11 -22 -10 -4 4 21 17 26 19 26 11z
m-50 -29 c0 -2 -48 -32 -107 -67 -128 -74 -131 -75 -118 -62 9 9 216 133 223
133 1 0 2 -2 2 -4z m-2485 -35 c-6 -5 -189 -127 -409 -271 l-399 -261 -60 3
-61 3 320 182 c175 101 384 221 464 267 144 84 163 94 145 77z m-1065 -75 c0
-3 -46 -33 -102 -68 -138 -87 -131 -83 -127 -69 2 6 54 41 114 76 115 68 115
68 115 61z m4575 -115 c-3 -6 -21 -18 -38 -26 l-32 -16 34 30 c33 29 51 35 36
12z m-3510 -110 c-37 -33 -377 -240 -405 -246 -19 -4 -31 -4 -27 1 9 9 428
253 437 254 2 0 0 -4 -5 -9z m290 0 c-23 -19 -400 -244 -419 -249 -37 -9 -10
8 206 134 205 119 233 134 213 115z m3205 -70 c0 -5 -7 -12 -16 -15 -14 -5
-15 -4 -4 9 14 17 20 19 20 6z m-4690 -55 c0 -2 -11 -11 -25 -20 -14 -9 -25
-13 -25 -8 0 5 10 14 23 20 27 13 27 13 27 8z m650 -70 c0 -6 -66 -46 -76 -46
-5 0 9 11 31 25 43 26 45 27 45 21z m845 -31 c-16 -13 -37 -24 -45 -25 -8 0 3
11 25 25 51 31 58 31 20 0z m2845 5 c-7 -12 -21 -20 -38 -20 l-27 0 30 19 c39
25 48 26 35 1z m-270 -5 c-7 -8 -17 -15 -23 -15 -6 0 -2 7 9 15 25 19 30 19
14 0z"/>
<path d="M2420 4543 c-142 -22 -288 -77 -418 -157 -265 -164 -437 -391 -504
-663 -51 -209 -15 -486 88 -684 13 -26 30 -57 36 -71 31 -58 98 -140 183 -224
100 -98 225 -180 350 -229 214 -85 498 -87 735 -7 110 38 240 98 240 111 0 23
-79 10 -155 -24 -365 -167 -746 -101 -1044 179 -128 121 -250 330 -296 512
-91 354 3 687 266 944 188 184 414 271 664 257 363 -21 696 -240 856 -562 70
-143 90 -226 96 -420 6 -179 -7 -258 -53 -328 -52 -79 -157 -96 -261 -44 -61
32 -86 58 -117 127 -37 80 -45 183 -39 454 l6 239 -53 -5 c-63 -6 -80 -24 -80
-81 l0 -38 -43 35 c-176 144 -426 134 -626 -24 -185 -146 -233 -386 -118 -582
31 -54 120 -139 173 -166 192 -98 438 -64 592 81 49 47 55 50 64 33 62 -110
207 -176 344 -156 173 25 291 121 329 268 22 80 18 287 -5 397 -90 411 -446
743 -880 821 -69 12 -270 17 -330 7z m280 -694 c186 -87 272 -341 180 -536
-60 -129 -165 -195 -316 -196 -72 -1 -89 3 -147 31 -77 38 -129 92 -168 176
-93 200 -28 442 141 523 56 26 89 32 175 30 62 -2 92 -8 135 -28z"/>
</g>
</svg>
